<svg viewBox="0 0 22 14" fill="#fff" xmlns="http://www.w3.org/2000/svg">
<g id="Group">
<path id="Vector" d="M20.83 6.442C20.653 6.179 16.441 0 11 0C5.55899 0 1.34699 6.179 1.16999 6.442L0.799988 7L1.17399 7.558C1.34699 7.821 5.55899 14 11 14C16.441 14 20.653 7.821 20.83 7.558L21.2 7L20.83 6.442ZM11 12C7.46899 12 4.33599 8.41 3.24199 7C4.33599 5.59 7.46899 2 11 2C14.531 2 17.664 5.59 18.758 7C17.664 8.41 14.531 12 11 12Z" fill="#fff"/>
<path id="Vector_2" d="M11 3C10.2089 3 9.43552 3.2346 8.77772 3.67412C8.11993 4.11365 7.60723 4.73836 7.30448 5.46927C7.00173 6.20017 6.92252 7.00444 7.07686 7.78036C7.2312 8.55629 7.61216 9.26902 8.17157 9.82843C8.73098 10.3878 9.44372 10.7688 10.2196 10.9231C10.9956 11.0775 11.7998 10.9983 12.5307 10.6955C13.2616 10.3928 13.8864 9.88008 14.3259 9.22228C14.7654 8.56448 15 7.79113 15 7C15 5.93913 14.5786 4.92172 13.8284 4.17157C13.0783 3.42143 12.0609 3 11 3ZM11 9C10.6044 9 10.2178 8.8827 9.88886 8.66294C9.55996 8.44318 9.30362 8.13082 9.15224 7.76537C9.00087 7.39991 8.96126 6.99778 9.03843 6.60982C9.1156 6.22186 9.30608 5.86549 9.58579 5.58579C9.86549 5.30608 10.2219 5.1156 10.6098 5.03843C10.9978 4.96126 11.3999 5.00087 11.7654 5.15224C12.1308 5.30362 12.4432 5.55996 12.6629 5.88886C12.8827 6.21776 13 6.60444 13 7C13 7.53043 12.7893 8.03914 12.4142 8.41421C12.0391 8.78929 11.5304 9 11 9Z" fill="#fff"/>
</g>
</svg>
