<svg  viewBox="0 0 274 274" fill="none" xmlns="http://www.w3.org/2000/svg">
<circle cx="137" cy="137" r="60.8889" fill="#FED530"/>
<path d="M125.583 155.778V118.221L153.744 137L125.583 155.778ZM129.389 125.334V148.666L146.894 137L129.389 125.334Z" fill="black"/>
<path d="M274 137C274 212.663 212.663 274 137 274C61.337 274 0 212.663 0 137C0 61.337 61.337 0 137 0C212.663 0 274 61.337 274 137ZM2.73999 137C2.73999 211.15 62.8502 271.26 137 271.26C211.15 271.26 271.26 211.15 271.26 137C271.26 62.8502 211.15 2.73999 137 2.73999C62.8502 2.73999 2.73999 62.8502 2.73999 137Z" fill="#808080"/>
<path d="M271.26 137C272.773 137 274.003 138.227 273.973 139.74C273.472 164.783 266.113 189.23 252.673 210.408C238.743 232.359 218.855 249.892 195.332 260.961C171.809 272.03 145.622 276.178 119.829 272.92C94.037 269.661 69.7042 259.132 49.6729 242.56C29.6416 225.989 14.7389 204.06 6.70526 179.335C-1.32835 154.61 -2.16116 128.11 4.30411 102.929C10.7694 77.7489 24.2658 54.9277 43.217 37.1313C61.502 19.9606 84.1365 8.15159 108.642 2.96698C110.123 2.65376 111.559 3.63166 111.842 5.11811C112.126 6.60457 111.15 8.03658 109.669 8.35104C86.185 13.34 64.4952 24.6672 46.9684 41.126C28.7752 58.2106 15.8186 80.119 9.61194 104.292C3.40528 128.466 4.20478 153.906 11.917 177.642C19.6293 201.378 33.936 222.429 53.166 238.338C72.396 254.246 95.7555 264.355 120.516 267.483C145.277 270.611 170.416 266.629 192.998 256.003C215.581 245.376 234.673 228.544 248.046 207.472C260.929 187.171 267.991 163.743 268.491 139.74C268.523 138.227 269.747 137 271.26 137Z" fill="#FED530"/>
</svg>
